<svg width="20" height="20" viewBox="0 0 20 20" fill="none" xmlns="http://www.w3.org/2000/svg">
<path d="M15.2442 3.5775L14.3392 4.4825L13.4342 3.5775C13.3568 3.50005 13.265 3.4386 13.1639 3.39667C13.0628 3.35475 12.9544 3.33317 12.845 3.33317C12.7356 3.33317 12.6272 3.35475 12.5261 3.39667C12.425 3.4386 12.3332 3.50005 12.2558 3.5775L11.215 4.61833C10.4268 4.3211 9.59155 4.16811 8.74917 4.16667C4.84417 4.16667 1.66667 7.34417 1.66667 11.25C1.66667 15.1558 4.84417 18.3333 8.74917 18.3333C12.6542 18.3333 15.8325 15.1558 15.8325 11.25C15.832 10.4983 15.7108 9.75156 15.4733 9.03833L16.595 7.91667C16.6725 7.83934 16.7339 7.74751 16.7758 7.64641C16.8178 7.54532 16.8393 7.43695 16.8393 7.3275C16.8393 7.21806 16.8178 7.10969 16.7758 7.00859C16.7339 6.90749 16.6725 6.81566 16.595 6.73833L15.5175 5.66083L16.4258 4.7525C16.6167 4.56167 17.13 4.16667 17.5 4.16667H18.3333V2.5H17.5C16.3333 2.5 15.3467 3.4725 15.2442 3.5775ZM8.74917 8.33333C7.97 8.33333 7.23834 8.63667 6.68667 9.1875C6.41525 9.45788 6.20009 9.77936 6.05363 10.1334C5.90716 10.4874 5.83229 10.8669 5.83334 11.25H4.16667C4.16667 10.0267 4.6425 8.87583 5.5075 8.01C5.93213 7.58281 6.43729 7.24411 6.99374 7.01352C7.55018 6.78294 8.14684 6.66504 8.74917 6.66667V8.33333Z" fill="white"/>
</svg>
