<svg width="20" height="20" viewBox="0 0 20 20" fill="none" xmlns="http://www.w3.org/2000/svg">
<path d="M7.02834 17.1383C8.14084 17.1383 9.18751 16.705 9.97417 15.9183L15.9192 9.97415C16.6991 9.19174 17.1369 8.13203 17.1368 7.02731C17.1366 5.92259 16.6985 4.86301 15.9183 4.08082C15.5321 3.69293 15.0729 3.38547 14.5671 3.1762C14.0613 2.96694 13.519 2.86002 12.9717 2.86165C11.8592 2.86165 10.8133 3.29498 10.0267 4.08165L4.08167 10.0258C3.30196 10.8082 2.86408 11.8677 2.86392 12.9723C2.86377 14.0769 3.30135 15.1365 4.08084 15.9192C4.4672 16.3071 4.92662 16.6145 5.43254 16.8238C5.93847 17.0331 6.48085 17.14 7.02834 17.1383ZM11.2042 5.25999C11.4357 5.02729 11.711 4.84282 12.0142 4.71723C12.3175 4.59164 12.6426 4.52743 12.9708 4.52832C13.6392 4.52832 14.2675 4.78832 14.7392 5.25999C15.2074 5.72916 15.4704 6.36489 15.4706 7.02773C15.4708 7.69057 15.208 8.32642 14.74 8.79582L12.3292 11.2058L8.79417 7.66915L11.2042 5.25999Z" fill="white"/>
</svg>
