<svg width="20" height="20" viewBox="0 0 20 20" fill="none" xmlns="http://www.w3.org/2000/svg">
<path d="M9.57333 18.1283C9.81833 18.2592 10.1258 18.2583 10.3708 18.1275C17.0475 14.5408 17.5217 7.53333 17.5158 5.54083C17.5152 5.38069 17.4679 5.22421 17.3797 5.09055C17.2914 4.9569 17.1662 4.85187 17.0192 4.78833L10.3108 1.81666C10.2041 1.76961 10.0887 1.74537 9.97199 1.74551C9.85532 1.74566 9.73997 1.77018 9.63333 1.8175L2.97166 4.78916C2.82682 4.85274 2.70332 4.9566 2.61585 5.08839C2.52838 5.22018 2.48065 5.37434 2.47833 5.5325C2.44999 7.515 2.84916 14.5375 9.57333 18.1283ZM7.22833 8.5775L9.13916 10.4883L12.7167 6.91083L13.895 8.08916L9.13916 12.845L6.04999 9.75583L7.22833 8.5775Z" fill="white"/>
</svg>
