<svg width="20" height="20" viewBox="0 0 20 20" fill="none" xmlns="http://www.w3.org/2000/svg">
<path d="M17.5 4.16666H2.5C2.27899 4.16666 2.06703 4.25445 1.91075 4.41073C1.75447 4.56701 1.66667 4.77898 1.66667 4.99999V8.33332H2.41084C3.24084 8.33332 4.01084 8.90082 4.14417 9.71999C4.18479 9.95919 4.17272 10.2044 4.10881 10.4384C4.0449 10.6725 3.93068 10.8898 3.77412 11.0751C3.61757 11.2605 3.42246 11.4094 3.20239 11.5116C2.98233 11.6138 2.74263 11.6667 2.5 11.6667H1.66667V15C1.66667 15.221 1.75447 15.433 1.91075 15.5892C2.06703 15.7455 2.27899 15.8333 2.5 15.8333H17.5C17.721 15.8333 17.933 15.7455 18.0893 15.5892C18.2455 15.433 18.3333 15.221 18.3333 15V11.6667H17.5C17.2574 11.6667 17.0177 11.6138 16.7976 11.5116C16.5775 11.4094 16.3824 11.2605 16.2259 11.0751C16.0693 10.8898 15.9551 10.6725 15.8912 10.4384C15.8273 10.2044 15.8152 9.95919 15.8558 9.71999C15.9892 8.90082 16.7592 8.33332 17.5892 8.33332H18.3333V4.99999C18.3333 4.77898 18.2455 4.56701 18.0893 4.41073C17.933 4.25445 17.721 4.16666 17.5 4.16666ZM9.16667 14.1667H7.5V12.5H9.16667V14.1667ZM9.16667 10.8333H7.5V9.16666H9.16667V10.8333ZM9.16667 7.49999H7.5V5.83332H9.16667V7.49999Z" fill="white"/>
</svg>
