<svg width="20" height="20" viewBox="0 0 20 20" fill="none" xmlns="http://www.w3.org/2000/svg">
<path fill-rule="evenodd" clip-rule="evenodd" d="M16.6667 6.66666C16.6667 6.81082 16.6567 6.95582 16.6375 7.10082C17.665 7.67916 18.3333 8.77916 18.3333 9.99999C18.3333 11.2208 17.665 12.3208 16.6375 12.8992C16.6567 13.0442 16.6667 13.1892 16.6667 13.3333C16.6667 15.3158 14.8808 16.9025 12.8992 16.6375C12.3217 17.665 11.2217 18.3333 10 18.3333C8.77834 18.3333 7.67834 17.665 7.10084 16.6375C5.115 16.9025 3.33334 15.3158 3.33334 13.3333C3.33354 13.1881 3.34328 13.0431 3.3625 12.8992C2.335 12.3208 1.66667 11.2208 1.66667 9.99999C1.66667 8.77916 2.335 7.67916 3.3625 7.10082C3.34334 6.95582 3.33334 6.81082 3.33334 6.66666C3.33334 4.68416 5.115 3.09332 7.10084 3.36249C7.67834 2.33499 8.77834 1.66666 10 1.66666C11.2217 1.66666 12.3217 2.33499 12.8992 3.36249C14.8808 3.09332 16.6667 4.68416 16.6667 6.66666ZM11 14.6667V13.7625C12.6425 13.4867 13.5 12.4067 13.5 11.3333C13.5 10.4 13.0667 8.83333 10.1667 8.83333C8.50003 8.83333 8.50003 8.31167 8.50003 8C8.50003 7.59667 9.08419 7.16667 10.1667 7.16667C11.1542 7.16667 11.3217 7.69833 11.3334 8.015L12.1667 8H13C13 7.145 12.445 5.9425 11 5.60083V4.67667H9.33336V5.57083C7.69086 5.84667 6.83336 6.92667 6.83336 8C6.83336 8.93333 7.26669 10.5 10.1667 10.5C11.8334 10.5 11.8334 11.0633 11.8334 11.3333C11.8334 11.6792 11.3167 12.1667 10.1667 12.1667C8.63253 12.1667 8.50919 11.4525 8.50003 11.3333H6.83336C6.83336 12.0983 7.38419 13.4608 9.33336 13.7667V14.6667H11Z" fill="white"/>
</svg>
