<svg width="20" height="20" viewBox="0 0 20 20" fill="none" xmlns="http://www.w3.org/2000/svg">
<path d="M1.80417 16.2925C1.95917 16.5258 2.22001 16.6667 2.50001 16.6667H15C15.3333 16.6667 15.635 16.4683 15.7658 16.1617L18.2658 10.3283C18.3206 10.2016 18.343 10.0633 18.3309 9.92573C18.3189 9.78821 18.2728 9.65584 18.1968 9.54058C18.1208 9.42532 18.0173 9.33079 17.8957 9.26551C17.774 9.20024 17.6381 9.16627 17.5 9.16668H16.6667V6.66668C16.6667 5.74751 15.9192 5.00001 15 5.00001H9.45417L7.32417 3.33334H3.33334C2.41417 3.33334 1.66667 4.08084 1.66667 5.00001V15.8333H1.67251C1.67065 15.996 1.71642 16.1556 1.80417 16.2925ZM15 6.66668V9.16668H5.00001C4.66667 9.16668 4.36501 9.36501 4.23417 9.67168L3.33334 11.7742V6.66668H15Z" fill="white"/>
</svg>
