<svg width="20" height="20" viewBox="0 0 20 20" fill="none" xmlns="http://www.w3.org/2000/svg">
<path d="M16.6667 10.8333H3.33334C2.89131 10.8333 2.46739 11.0089 2.15483 11.3215C1.84227 11.634 1.66667 12.058 1.66667 12.5V15.8333C1.66667 16.2754 1.84227 16.6993 2.15483 17.0118C2.46739 17.3244 2.89131 17.5 3.33334 17.5H16.6667C17.1087 17.5 17.5326 17.3244 17.8452 17.0118C18.1577 16.6993 18.3333 16.2754 18.3333 15.8333V12.5C18.3333 12.058 18.1577 11.634 17.8452 11.3215C17.5326 11.0089 17.1087 10.8333 16.6667 10.8333ZM13.3333 15H11.6667V13.3333H13.3333V15ZM16.6667 15H15V13.3333H16.6667V15ZM17.3125 9.16666H17.5L16.1233 2.97166C16.0411 2.60155 15.8351 2.27056 15.5393 2.03331C15.2436 1.79605 14.8758 1.66672 14.4967 1.66666H5.50334C5.1242 1.66672 4.75641 1.79605 4.46068 2.03331C4.16495 2.27056 3.95894 2.60155 3.87667 2.97166L2.5 9.16666H17.3125Z" fill="white"/>
</svg>
