<svg width="20" height="20" viewBox="0 0 20 20" fill="none" xmlns="http://www.w3.org/2000/svg">
<path fill-rule="evenodd" clip-rule="evenodd" d="M16.6375 7.10082C16.6567 6.95582 16.6667 6.81082 16.6667 6.66666C16.6667 4.68416 14.8808 3.09332 12.8992 3.36249C12.3217 2.33499 11.2217 1.66666 10 1.66666C8.77834 1.66666 7.67834 2.33499 7.10084 3.36249C5.115 3.09332 3.33334 4.68416 3.33334 6.66666C3.33334 6.81082 3.34334 6.95582 3.3625 7.10082C2.335 7.67916 1.66667 8.77916 1.66667 9.99999C1.66667 11.2208 2.335 12.3208 3.3625 12.8992C3.34328 13.0431 3.33354 13.1881 3.33334 13.3333C3.33334 15.3158 5.115 16.9025 7.10084 16.6375C7.67834 17.665 8.77834 18.3333 10 18.3333C11.2217 18.3333 12.3217 17.665 12.8992 16.6375C14.8808 16.9025 16.6667 15.3158 16.6667 13.3333C16.6667 13.1892 16.6567 13.0442 16.6375 12.8992C17.665 12.3208 18.3333 11.2208 18.3333 9.99999C18.3333 8.77916 17.665 7.67916 16.6375 7.10082ZM8.79991 6.19151C8.56549 5.95694 8.24749 5.82509 7.91586 5.82498C7.58423 5.82487 7.26613 5.95651 7.03156 6.19093C6.79698 6.42535 6.66513 6.74335 6.66502 7.07498C6.66491 7.40661 6.79655 7.7247 7.03097 7.95928C7.26539 8.19386 7.58339 8.3257 7.91502 8.32582C8.24665 8.32593 8.56475 8.19429 8.79932 7.95987C9.0339 7.72545 9.16575 7.40745 9.16586 7.07582C9.16597 6.74418 9.03433 6.42609 8.79991 6.19151ZM11.8325 6.15915L6.83252 12.8258L8.16586 13.825L13.1659 7.15832L11.8325 6.15915ZM11.604 14.063C11.7557 14.1259 11.9183 14.1583 12.0825 14.1583C12.4142 14.1584 12.7322 14.0268 12.9668 13.7924C13.2014 13.5579 13.3332 13.2399 13.3334 12.9083C13.3335 12.5767 13.2018 12.2586 12.9674 12.024C12.733 11.7894 12.415 11.6576 12.0834 11.6575C11.9191 11.6574 11.7565 11.6897 11.6048 11.7525C11.4531 11.8153 11.3152 11.9074 11.1991 12.0234C11.0829 12.1395 10.9908 12.2773 10.9279 12.429C10.865 12.5807 10.8326 12.7433 10.8325 12.9075C10.8325 13.0717 10.8648 13.2343 10.9275 13.386C10.9903 13.5378 11.0824 13.6756 11.1985 13.7918C11.3145 13.9079 11.4524 14.0001 11.604 14.063Z" fill="white"/>
</svg>
