<svg width="20" height="20" viewBox="0 0 20 20" fill="none" xmlns="http://www.w3.org/2000/svg">
<path d="M8.26 7.10918L5.93417 3.23084C5.90557 3.18234 5.86745 3.14012 5.82211 3.10673C5.77678 3.07333 5.72515 3.04946 5.67034 3.03653C5.61554 3.02361 5.55868 3.02191 5.5032 3.03153C5.44772 3.04115 5.39476 3.06189 5.3475 3.09251C4.29411 3.79946 3.41637 4.73797 2.78143 5.83627C2.14648 6.93457 1.77116 8.16354 1.68417 9.42918C1.6816 9.48548 1.69036 9.54172 1.70993 9.59457C1.72951 9.64742 1.7595 9.69579 1.79813 9.73683C1.83676 9.77787 1.88324 9.81073 1.93481 9.83346C1.98637 9.8562 2.04198 9.86834 2.09834 9.86918L6.61584 9.94418C6.62587 9.37074 6.78215 8.80936 7.06988 8.31323C7.35761 7.8171 7.76726 7.40266 8.26 7.10918ZM15.0175 3.35084C14.9702 3.31661 14.9163 3.2926 14.8592 3.28037C14.8022 3.26813 14.7432 3.26792 14.686 3.27976C14.6288 3.2916 14.5748 3.31523 14.5272 3.34913C14.4797 3.38304 14.4398 3.42648 14.41 3.47668L12.0825 7.35834C12.4771 7.66712 12.7976 8.06029 13.0205 8.50902C13.2435 8.95775 13.3632 9.45068 13.3708 9.95168L17.8867 9.87668C17.9432 9.87584 17.9991 9.86366 18.0508 9.84084C18.1026 9.81802 18.1493 9.78504 18.1881 9.74384C18.2268 9.70265 18.2569 9.65409 18.2766 9.60104C18.2963 9.54799 18.3051 9.49153 18.3025 9.43501C18.2231 8.24468 17.8886 7.08534 17.3218 6.0356C16.755 4.98585 15.9692 4.07024 15.0175 3.35084ZM11.6283 12.9433C11.1299 13.2272 10.5669 13.3781 9.99333 13.3817C9.41949 13.3782 8.85618 13.2273 8.3575 12.9433L6.15584 16.9058C6.12806 16.9547 6.11048 17.0088 6.10414 17.0647C6.09781 17.1205 6.10285 17.1771 6.11897 17.231C6.13509 17.2849 6.16195 17.3349 6.19793 17.3782C6.23391 17.4214 6.27827 17.4569 6.32834 17.4825C7.46865 18.0433 8.7226 18.3344 9.99333 18.3333C11.2635 18.3344 12.5169 18.0432 13.6567 17.4825C13.7067 17.4569 13.7511 17.4214 13.7871 17.3782C13.8231 17.3349 13.8499 17.2849 13.866 17.231C13.8822 17.1771 13.8872 17.1205 13.8809 17.0647C13.8745 17.0088 13.8569 16.9547 13.8292 16.9058L11.6283 12.9433Z" fill="white"/>
<path d="M10 12.5C11.3807 12.5 12.5 11.3807 12.5 10C12.5 8.61929 11.3807 7.5 10 7.5C8.61929 7.5 7.5 8.61929 7.5 10C7.5 11.3807 8.61929 12.5 10 12.5Z" fill="white"/>
</svg>
