<svg width="20" height="20" viewBox="0 0 20 20" fill="none" xmlns="http://www.w3.org/2000/svg">
<path d="M10 4.16666C3.63917 4.16666 1.72751 9.68082 1.71001 9.73666L1.62167 9.99999L1.70917 10.2633C1.72751 10.3192 3.63917 15.8333 10 15.8333C16.3608 15.8333 18.2725 10.3192 18.29 10.2633L18.3783 9.99999L18.2908 9.73666C18.2725 9.68082 16.3608 4.16666 10 4.16666ZM10 13.3333C8.16167 13.3333 6.66667 11.8383 6.66667 9.99999C6.66667 8.16166 8.16167 6.66666 10 6.66666C11.8383 6.66666 13.3333 8.16166 13.3333 9.99999C13.3333 11.8383 11.8383 13.3333 10 13.3333Z" fill="white"/>
<path d="M9.99999 8.33334C9.09666 8.33334 8.33333 9.09668 8.33333 10C8.33333 10.9033 9.09666 11.6667 9.99999 11.6667C10.9033 11.6667 11.6667 10.9033 11.6667 10C11.6667 9.09668 10.9033 8.33334 9.99999 8.33334Z" fill="white"/>
</svg>
