<svg width="20" height="20" viewBox="0 0 20 20" fill="none" xmlns="http://www.w3.org/2000/svg">
<path d="M5.35 8.225L10 17.3167L14.65 8.225H5.35ZM4.91667 3.34167L1.66667 7.7H4.68334L4.91667 3.34167ZM10 2.85L5.525 7.7H14.475L10 2.85ZM1.70001 8.225L9.275 17.0417L4.76667 8.225H1.70001ZM9.60834 2.5H9.48334L5.45 2.925C5.45394 2.93861 5.45394 2.95306 5.45 2.96667L5.225 7.25833L9.60834 2.5ZM10.725 17.0417L18.3 8.225H15.2333L10.725 17.0417ZM14.5417 2.98333C14.5377 2.96972 14.5377 2.95528 14.5417 2.94167L11.2083 2.59167L10.375 2.5L14.7583 7.25833L14.5417 2.98333ZM15.0833 3.34167L15.3167 7.7H18.3333L16.4833 5.21667L15.0833 3.34167Z" fill="white"/>
</svg>
