<svg width="20" height="20" viewBox="0 0 20 20" fill="none" xmlns="http://www.w3.org/2000/svg">
<path d="M10 1.66666C5.405 1.66666 1.66667 5.40499 1.66667 9.99999C1.66667 14.595 5.405 18.3333 10 18.3333C14.595 18.3333 18.3333 14.595 18.3333 9.99999C18.3333 5.40499 14.595 1.66666 10 1.66666ZM3.33334 9.99999C3.33334 9.25082 3.46334 8.53166 3.6925 7.85916L5 9.16666L6.66667 10.8333V12.5L8.33334 14.1667L9.16667 15V16.6092C5.88417 16.1967 3.33334 13.3933 3.33334 9.99999ZM15.275 14.0608C14.7308 13.6225 13.9058 13.3333 13.3333 13.3333V12.5C13.3333 12.058 13.1577 11.634 12.8452 11.3215C12.5326 11.0089 12.1087 10.8333 11.6667 10.8333H8.33334V8.33332C8.77536 8.33332 9.19929 8.15773 9.51185 7.84517C9.82441 7.53261 10 7.10868 10 6.66666V5.83332H10.8333C11.2754 5.83332 11.6993 5.65773 12.0118 5.34517C12.3244 5.03261 12.5 4.60868 12.5 4.16666V3.82416C14.94 4.81499 16.6667 7.20832 16.6667 9.99999C16.6665 11.4706 16.1769 12.8993 15.275 14.0608Z" fill="white"/>
</svg>
