<svg width="20" height="20" viewBox="0 0 20 20" fill="none" xmlns="http://www.w3.org/2000/svg">
<path d="M17.9267 5.09333L14.685 8.33417L11.7392 5.3875L14.98 2.14667C13.9912 1.74015 12.9042 1.63531 11.8559 1.84535C10.8075 2.05538 9.84483 2.5709 9.08893 3.32698C8.33302 4.08306 7.81773 5.0459 7.60795 6.09425C7.39816 7.14261 7.50326 8.22959 7.91 9.21833L2.68 14.4475C2.60255 14.5248 2.5411 14.6167 2.49917 14.7178C2.45725 14.8189 2.43567 14.9272 2.43567 15.0367C2.43567 15.1461 2.45725 15.2545 2.49917 15.3556C2.5411 15.4567 2.60255 15.5485 2.68 15.6258L4.44834 17.3942C4.52566 17.4716 4.6175 17.5331 4.71859 17.575C4.81969 17.6169 4.92806 17.6385 5.0375 17.6385C5.14695 17.6385 5.25532 17.6169 5.35641 17.575C5.45751 17.5331 5.54935 17.4716 5.62667 17.3942L10.8558 12.1642C11.8447 12.5712 12.9319 12.6766 13.9804 12.4669C15.029 12.2572 15.9921 11.7419 16.7483 10.9858C17.5041 10.2294 18.0192 9.26634 18.2289 8.21783C18.4386 7.16933 18.3334 6.08222 17.9267 5.09333Z" fill="white"/>
</svg>
