<svg width="20" height="20" viewBox="0 0 20 20" fill="none" xmlns="http://www.w3.org/2000/svg">
<path d="M17.4833 9.83499C17.4524 9.68054 17.3782 9.53809 17.2693 9.4243C17.1604 9.31052 17.0213 9.23011 16.8683 9.19249L11.1517 7.76249L13.2658 2.82832C13.3395 2.6571 13.3535 2.46609 13.3056 2.28596C13.2577 2.10583 13.1506 1.94701 13.0017 1.83499C12.853 1.72223 12.6706 1.66288 12.484 1.66651C12.2975 1.67014 12.1175 1.73654 11.9733 1.85499L2.80667 9.35499C2.6871 9.4528 2.59707 9.58192 2.54664 9.72793C2.49621 9.87395 2.48735 10.0311 2.52106 10.1819C2.55478 10.3326 2.62973 10.471 2.73755 10.5817C2.84538 10.6923 2.98183 10.7708 3.13167 10.8083L8.73084 12.2092L5.94334 17.0875C5.87143 17.2142 5.83397 17.3576 5.83469 17.5033C5.83541 17.649 5.87429 17.792 5.94745 17.918C6.02062 18.044 6.12552 18.1487 6.2517 18.2215C6.37789 18.2944 6.52096 18.3329 6.66667 18.3333C6.84703 18.3336 7.02257 18.2751 7.16667 18.1667L17.1667 10.6667C17.2927 10.5721 17.3893 10.4438 17.4453 10.2966C17.5014 10.1494 17.5145 9.98937 17.4833 9.83499Z" fill="white"/>
</svg>
