<svg width="24" height="24" viewBox="0 0 24 24" fill="none" xmlns="http://www.w3.org/2000/svg">
<path d="M20.892 9.88902C20.8856 9.85948 20.8773 9.83041 20.867 9.80202L18.763 3.32301C18.7063 3.15607 18.5986 3.01119 18.455 2.90889C18.3114 2.80659 18.1393 2.75206 17.963 2.75302C17.7873 2.75195 17.6159 2.80721 17.4739 2.91069C17.3319 3.01417 17.2268 3.16043 17.174 3.32802L15.168 9.50302H8.83399L6.82599 3.32701C6.77321 3.16001 6.66853 3.01419 6.52717 2.91078C6.38581 2.80737 6.21514 2.75175 6.03999 2.75202H6.03399C5.85783 2.752 5.68615 2.80757 5.54341 2.91081C5.40066 3.01406 5.29414 3.1597 5.23899 3.32701L3.13299 9.81501C3.13299 9.82001 3.12799 9.82502 3.12599 9.83102L2.05899 13.112C1.98018 13.3526 1.97984 13.6121 2.05802 13.8529C2.13621 14.0938 2.28887 14.3036 2.49399 14.452L11.721 21.158C11.888 21.279 12.114 21.278 12.279 21.155L21.508 14.452C21.7125 14.303 21.8647 14.0932 21.9428 13.8526C22.021 13.6119 22.021 13.3527 21.943 13.112L20.892 9.88902ZM17.97 3.93602L19.779 9.50202H16.16L17.97 3.93602ZM6.02999 3.93602L7.84199 9.50202H4.22799L6.02999 3.93602ZM3.04799 13.688C3.00434 13.6567 2.9718 13.6123 2.95508 13.5612C2.93836 13.5102 2.93833 13.4551 2.95499 13.404L3.74799 10.967L9.56499 18.423L3.04799 13.688ZM4.54699 10.449H8.14799L10.721 18.365L4.54699 10.449ZM11.999 19.243L9.14299 10.445H14.861L13.069 15.96L11.999 19.243ZM13.281 18.366L15.748 10.778L15.854 10.449H19.458L13.872 17.605L13.281 18.366ZM20.952 13.688L14.433 18.421L14.455 18.392L20.249 10.967L21.041 13.403C21.0588 13.4538 21.0597 13.5089 21.0437 13.5603C21.0277 13.6116 20.9955 13.6564 20.952 13.688Z" fill="white"/>
</svg>
