<svg width="24" height="24" viewBox="0 0 24 24" fill="none" xmlns="http://www.w3.org/2000/svg">
<path d="M12.166 3C12.962 3 15.661 3.223 16.935 6.073C17.361 7.032 17.259 8.662 17.175 9.971L17.173 10.018C17.162 10.164 17.155 10.296 17.149 10.428C17.2479 10.4806 17.3591 10.5055 17.471 10.5C17.712 10.487 18.001 10.404 18.302 10.259C18.4178 10.2016 18.5457 10.1728 18.675 10.175C18.821 10.175 18.964 10.198 19.084 10.247C19.445 10.367 19.674 10.632 19.674 10.921C19.687 11.282 19.361 11.596 18.699 11.86C18.628 11.883 18.53 11.921 18.423 11.956C18.06 12.065 17.506 12.245 17.35 12.607C17.278 12.788 17.301 13.028 17.448 13.304L17.46 13.317C17.508 13.426 18.688 16.112 21.314 16.546C21.4103 16.5615 21.4977 16.6116 21.5597 16.6869C21.6217 16.7622 21.6542 16.8575 21.651 16.955C21.651 17.015 21.638 17.074 21.615 17.136C21.422 17.593 20.592 17.931 19.085 18.157C19.038 18.23 18.989 18.459 18.953 18.616C18.931 18.76 18.893 18.905 18.846 19.06C18.785 19.278 18.629 19.385 18.4 19.385H18.376C18.2302 19.3783 18.0853 19.3585 17.943 19.326C17.6065 19.2534 17.2632 19.2172 16.919 19.218C16.679 19.218 16.439 19.23 16.187 19.278C15.704 19.362 15.283 19.651 14.801 19.988C14.114 20.469 13.332 21.024 12.152 21.024C12.104 21.024 12.056 21.012 12.006 21.012H11.887C10.706 21.012 9.936 20.469 9.25 19.976C8.769 19.638 8.36 19.35 7.877 19.265C7.63031 19.2282 7.3814 19.2081 7.132 19.205C6.697 19.205 6.361 19.277 6.109 19.325C5.939 19.36 5.795 19.384 5.674 19.384C5.56855 19.392 5.46364 19.3626 5.37769 19.301C5.29175 19.2394 5.23025 19.1494 5.204 19.047C5.156 18.893 5.133 18.734 5.097 18.591C5.059 18.445 5.012 18.195 4.964 18.133C3.421 17.954 2.591 17.616 2.399 17.147C2.37248 17.0902 2.35752 17.0287 2.355 16.966C2.35115 16.8683 2.38338 16.7727 2.44553 16.6973C2.50768 16.6218 2.59541 16.5719 2.692 16.557C5.317 16.123 6.497 13.438 6.546 13.325L6.559 13.302C6.704 13.025 6.739 12.782 6.655 12.603C6.499 12.254 5.944 12.074 5.585 11.953C5.48947 11.9289 5.39615 11.8968 5.306 11.857C4.416 11.507 4.295 11.109 4.344 10.833C4.416 10.449 4.885 10.196 5.283 10.196C5.4 10.196 5.5 10.219 5.591 10.256C5.928 10.411 6.226 10.497 6.479 10.497C6.60862 10.5018 6.73723 10.4724 6.852 10.412L6.811 9.954C6.731 8.647 6.629 7.019 7.058 6.065C8.294 3.229 10.987 3.011 11.782 3.011L12.117 3H12.166Z" fill="white"/>
</svg>
