<svg width="24" height="24" viewBox="0 0 24 24" fill="none" xmlns="http://www.w3.org/2000/svg">
<path d="M2.971 12.188C2.93 12.188 2.893 12.226 2.888 12.27L2.694 14.067L2.888 15.823C2.893 15.872 2.93 15.905 2.971 15.905C3.012 15.905 3.046 15.872 3.055 15.823L3.266 14.067L3.041 12.27C3.041 12.224 3.004 12.188 2.967 12.188M2.217 12.879C2.166 12.879 2.141 12.909 2.129 12.958L1.991 14.067L2.129 15.159C2.129 15.205 2.166 15.237 2.204 15.237C2.243 15.237 2.277 15.199 2.291 15.15L2.467 14.05L2.291 12.938C2.291 12.887 2.254 12.862 2.216 12.862M3.742 11.837C3.69 11.837 3.642 11.876 3.642 11.924L3.466 14.063L3.654 16.114C3.654 16.163 3.691 16.214 3.753 16.214C3.805 16.214 3.842 16.163 3.855 16.114L4.066 14.05L3.855 11.924C3.842 11.875 3.803 11.824 3.753 11.824M4.543 11.749C4.48 11.749 4.429 11.8 4.417 11.862L4.256 14.063L4.433 16.186C4.445 16.249 4.494 16.3 4.555 16.3C4.619 16.3 4.668 16.249 4.68 16.176L4.881 14.063L4.68 11.876C4.68026 11.8613 4.67758 11.8467 4.67211 11.8331C4.66664 11.8194 4.65849 11.807 4.64815 11.7966C4.6378 11.7861 4.62546 11.7779 4.61187 11.7723C4.59827 11.7667 4.5837 11.7639 4.569 11.764L4.543 11.749ZM5.505 12.05C5.50461 12.033 5.50085 12.0163 5.49393 12.0008C5.48701 11.9853 5.47707 11.9713 5.46469 11.9596C5.45231 11.948 5.43774 11.939 5.42183 11.933C5.40591 11.9271 5.38897 11.9243 5.372 11.925C5.33745 11.9242 5.30391 11.9367 5.27838 11.96C5.25285 11.9833 5.23731 12.0155 5.235 12.05L5.053 14.076L5.222 16.214C5.22186 16.2313 5.22519 16.2485 5.23179 16.2645C5.23839 16.2806 5.24812 16.2951 5.26042 16.3073C5.27272 16.3195 5.28733 16.3291 5.3034 16.3356C5.31947 16.3421 5.33667 16.3453 5.354 16.345C5.416 16.345 5.477 16.29 5.477 16.213L5.666 14.074L5.477 12.038L5.505 12.05ZM6.179 10.624C6.13988 10.6255 6.10282 10.6419 6.07533 10.6697C6.04783 10.6976 6.03198 10.7349 6.031 10.774L5.855 14.074L6.011 16.213C6.011 16.29 6.077 16.35 6.161 16.35C6.239 16.35 6.306 16.276 6.311 16.2L6.485 14.063L6.312 10.75C6.305 10.662 6.238 10.598 6.162 10.598M6.962 9.83602C6.91867 9.83781 6.87749 9.85537 6.84618 9.88538C6.81488 9.91539 6.79561 9.9558 6.792 9.99902L6.642 14.062L6.78 16.187C6.78 16.287 6.855 16.361 6.943 16.361C7.029 16.361 7.104 16.287 7.117 16.187L7.279 14.062L7.118 10.01C7.105 9.91002 7.03 9.83502 6.943 9.83502M7.769 9.46302C7.667 9.46302 7.593 9.53602 7.581 9.63602L7.442 14.036L7.581 16.138C7.593 16.238 7.667 16.326 7.769 16.326C7.81828 16.3245 7.86512 16.3042 7.89989 16.2692C7.93467 16.2343 7.95474 16.1873 7.956 16.138L8.119 14.036L7.955 9.63602C7.955 9.53602 7.868 9.44802 7.767 9.44802M8.805 9.48602C8.8054 9.45977 8.80053 9.43371 8.79067 9.40939C8.78082 9.38506 8.76617 9.36296 8.74761 9.3444C8.72905 9.32584 8.70695 9.3112 8.68263 9.30134C8.6583 9.29148 8.63224 9.28661 8.606 9.28702C8.55335 9.28802 8.5031 9.30925 8.46568 9.3463C8.42826 9.38335 8.40653 9.43338 8.405 9.48602L8.28 14.024L8.404 16.113C8.419 16.224 8.505 16.312 8.618 16.312C8.731 16.312 8.819 16.224 8.819 16.113L8.955 14.024L8.819 9.47402L8.805 9.48602ZM9.43 9.37502C9.317 9.37502 9.217 9.47502 9.217 9.58602L9.092 14.025L9.217 16.088C9.217 16.213 9.317 16.301 9.43 16.301C9.48791 16.2992 9.54279 16.2747 9.58282 16.2328C9.62284 16.1909 9.64481 16.135 9.644 16.077L9.769 14.013L9.629 9.58502C9.629 9.46302 9.529 9.36002 9.404 9.36002M10.242 9.49902C10.2108 9.49888 10.18 9.50492 10.1511 9.51679C10.1223 9.52865 10.0962 9.5461 10.0741 9.56814C10.0521 9.59017 10.0346 9.61635 10.0228 9.64516C10.0109 9.67398 10.0049 9.70486 10.005 9.73602L9.919 14.026L10.032 16.089C10.032 16.213 10.132 16.32 10.268 16.32C10.393 16.32 10.495 16.22 10.505 16.083L10.606 14.045L10.494 9.78002C10.484 9.64302 10.381 9.54202 10.257 9.54202M11.245 8.75602C11.2029 8.73134 11.1548 8.71855 11.106 8.71902C11.056 8.71902 11.006 8.73202 10.969 8.75602C10.9314 8.77774 10.9 8.80891 10.8781 8.84644C10.8562 8.88396 10.8444 8.92656 10.844 8.97002V9.02002L10.758 14.064L10.854 16.107V16.114C10.86 16.164 10.878 16.226 10.914 16.264C10.964 16.315 11.034 16.35 11.11 16.35C11.1752 16.3465 11.2371 16.3203 11.285 16.276C11.3095 16.2513 11.3289 16.2219 11.3419 16.1897C11.355 16.1574 11.3615 16.1228 11.361 16.088L11.374 15.887L11.471 14.049L11.358 8.97402C11.3574 8.93425 11.347 8.89524 11.3276 8.8605C11.3082 8.82577 11.2805 8.79639 11.247 8.77502L11.245 8.75602ZM12.082 8.29902C12.0666 8.28159 12.0474 8.26787 12.0259 8.25887C12.0045 8.24987 11.9812 8.24582 11.958 8.24702C11.8959 8.24476 11.8347 8.26304 11.784 8.29902C11.7536 8.32316 11.7289 8.35367 11.7117 8.3884C11.6944 8.42313 11.6849 8.46124 11.684 8.50002V8.52302L11.57 14.036L11.633 15.05L11.685 16.038C11.6866 16.1107 11.717 16.1797 11.7695 16.23C11.822 16.2803 11.8923 16.3076 11.965 16.306C12.0377 16.3044 12.1067 16.274 12.157 16.2215C12.2072 16.169 12.2346 16.0987 12.233 16.026L12.358 14.013L12.233 8.47702C12.2319 8.42987 12.2186 8.38382 12.1944 8.34333C12.1702 8.30285 12.136 8.26932 12.095 8.24602M19.547 11.396C19.211 11.396 18.884 11.468 18.598 11.589C18.5373 10.9186 18.3215 10.2714 17.9676 9.69875C17.6137 9.12608 17.1314 8.64359 16.5589 8.28944C15.9864 7.93528 15.3393 7.71916 14.6689 7.65817C13.9984 7.59718 13.323 7.69299 12.696 7.93802C12.508 8.01302 12.469 8.08902 12.458 8.23902V16.051C12.4623 16.124 12.4922 16.1932 12.5425 16.2462C12.5928 16.2993 12.6603 16.3329 12.733 16.341H19.56C19.8815 16.3439 20.2005 16.283 20.4982 16.1616C20.796 16.0403 21.0667 15.861 21.2947 15.6342C21.5226 15.4074 21.7032 15.1375 21.826 14.8404C21.9488 14.5432 22.0113 14.2246 22.01 13.903C22.0116 13.2516 21.7544 12.6261 21.295 12.1642C20.8355 11.7024 20.2115 11.4419 19.56 11.44" fill="white"/>
</svg>
